<svg width="29" height="29" viewBox="0 0 29 29" fill="none" xmlns="http://www.w3.org/2000/svg">
<path d="M21.828 7.18086C17.7858 3.13367 11.2281 3.12964 7.18087 7.17181C3.13368 11.2141 3.1296 17.7719 7.17188 21.8191C11.214 25.8663 17.7719 25.8703 21.8191 21.8281C25.8662 17.7859 25.8703 11.228 21.828 7.18086ZM15.9461 21.072C15.9461 21.2319 15.8166 21.3613 15.6569 21.3613H13.3431C13.1834 21.3613 13.0539 21.2319 13.0539 21.072V12.4828C13.0539 12.323 13.1834 12.1936 13.3431 12.1936H15.6569C15.8166 12.1936 15.9461 12.323 15.9461 12.4828V21.072ZM14.5 10.9933C13.5751 10.9933 12.8226 10.2409 12.8226 9.31598C12.8226 8.39114 13.575 7.63858 14.5 7.63858C15.4249 7.63858 16.1774 8.39109 16.1774 9.31598C16.1774 10.2409 15.4248 10.9933 14.5 10.9933Z" fill="white"/>
</svg>
