<svg width="364" height="71" viewBox="0 0 364 71" fill="none" xmlns="http://www.w3.org/2000/svg">
<path d="M2.784 25V2.6H7.072L16.608 18.408H14.336L23.712 2.6H28L28.032 25H23.168L23.136 10.056H24.064L16.544 22.632H14.24L6.56 10.056H7.648V25H2.784ZM43.5165 25V21.64L43.1965 20.904V14.888C43.1965 13.8213 42.8658 12.9893 42.2045 12.392C41.5645 11.7947 40.5725 11.496 39.2285 11.496C38.3112 11.496 37.4045 11.6453 36.5085 11.944C35.6338 12.2213 34.8872 12.6053 34.2685 13.096L32.4765 9.608C33.4152 8.94667 34.5458 8.43467 35.8685 8.072C37.1912 7.70933 38.5352 7.528 39.9005 7.528C42.5245 7.528 44.5618 8.14667 46.0125 9.384C47.4632 10.6213 48.1885 12.552 48.1885 15.176V25H43.5165ZM38.2685 25.256C36.9245 25.256 35.7725 25.032 34.8125 24.584C33.8525 24.1147 33.1165 23.4853 32.6045 22.696C32.0925 21.9067 31.8365 21.0213 31.8365 20.04C31.8365 19.016 32.0818 18.12 32.5725 17.352C33.0845 16.584 33.8845 15.9867 34.9725 15.56C36.0605 15.112 37.4792 14.888 39.2285 14.888H43.8045V17.8H39.7725C38.5992 17.8 37.7885 17.992 37.3405 18.376C36.9138 18.76 36.7005 19.24 36.7005 19.816C36.7005 20.456 36.9458 20.968 37.4365 21.352C37.9485 21.7147 38.6418 21.896 39.5165 21.896C40.3485 21.896 41.0952 21.704 41.7565 21.32C42.4178 20.9147 42.8978 20.328 43.1965 19.56L43.9645 21.864C43.6018 22.9733 42.9405 23.816 41.9805 24.392C41.0205 24.968 39.7832 25.256 38.2685 25.256ZM62.669 25.256C61.2183 25.256 59.949 24.936 58.861 24.296C57.773 23.656 56.9197 22.6853 56.301 21.384C55.7037 20.0613 55.405 18.3973 55.405 16.392C55.405 14.3653 55.693 12.7013 56.269 11.4C56.845 10.0987 57.677 9.128 58.765 8.488C59.853 7.848 61.1543 7.528 62.669 7.528C64.2903 7.528 65.741 7.90133 67.021 8.648C68.3223 9.37333 69.3463 10.3973 70.093 11.72C70.861 13.0427 71.245 14.6 71.245 16.392C71.245 18.2053 70.861 19.7733 70.093 21.096C69.3463 22.4187 68.3223 23.4427 67.021 24.168C65.741 24.8933 64.2903 25.256 62.669 25.256ZM52.493 31.208V7.784H57.261V11.304L57.165 16.424L57.485 21.512V31.208H52.493ZM61.805 21.16C62.637 21.16 63.373 20.968 64.013 20.584C64.6743 20.2 65.197 19.656 65.581 18.952C65.9863 18.2267 66.189 17.3733 66.189 16.392C66.189 15.3893 65.9863 14.536 65.581 13.832C65.197 13.128 64.6743 12.584 64.013 12.2C63.373 11.816 62.637 11.624 61.805 11.624C60.973 11.624 60.2263 11.816 59.565 12.2C58.9037 12.584 58.381 13.128 57.997 13.832C57.613 14.536 57.421 15.3893 57.421 16.392C57.421 17.3733 57.613 18.2267 57.997 18.952C58.381 19.656 58.9037 20.2 59.565 20.584C60.2263 20.968 60.973 21.16 61.805 21.16ZM86.9358 25L81.1758 16.84L85.2398 14.44L92.8238 25H86.9358ZM74.7438 25V7.784H79.7358V25H74.7438ZM78.2638 18.472V14.472H84.2798V18.472H78.2638ZM85.7198 16.968L81.0478 16.456L87.0958 7.784H92.4078L85.7198 16.968ZM103.16 25.256C101.197 25.256 99.4691 24.872 97.9758 24.104C96.5038 23.336 95.3624 22.2907 94.5518 20.968C93.7411 19.624 93.3358 18.0987 93.3358 16.392C93.3358 14.664 93.7304 13.1387 94.5198 11.816C95.3304 10.472 96.4291 9.42667 97.8158 8.68C99.2024 7.912 100.77 7.528 102.52 7.528C104.205 7.528 105.72 7.89067 107.064 8.616C108.429 9.32 109.506 10.344 110.296 11.688C111.085 13.0107 111.48 14.6 111.48 16.456C111.48 16.648 111.469 16.872 111.448 17.128C111.426 17.3627 111.405 17.5867 111.384 17.8H97.3998V14.888H108.76L106.84 15.752C106.84 14.856 106.658 14.0773 106.296 13.416C105.933 12.7547 105.432 12.2427 104.792 11.88C104.152 11.496 103.405 11.304 102.552 11.304C101.698 11.304 100.941 11.496 100.28 11.88C99.6398 12.2427 99.1384 12.7653 98.7758 13.448C98.4131 14.1093 98.2318 14.8987 98.2318 15.816V16.584C98.2318 17.5227 98.4344 18.3547 98.8398 19.08C99.2664 19.784 99.8531 20.328 100.6 20.712C101.368 21.0747 102.264 21.256 103.288 21.256C104.205 21.256 105.005 21.1173 105.688 20.84C106.392 20.5627 107.032 20.1467 107.608 19.592L110.264 22.472C109.474 23.368 108.482 24.0613 107.288 24.552C106.093 25.0213 104.717 25.256 103.16 25.256ZM118.393 25V10.728L119.513 11.88H112.569V7.784H129.177V11.88H122.233L123.353 10.728V25H118.393ZM131.838 25V7.784H148.958V25H143.966V10.76L145.086 11.88H135.678L136.798 10.76V25H131.838ZM151.568 24.968L151.824 20.872C151.952 20.8933 152.08 20.9147 152.208 20.936C152.336 20.936 152.453 20.936 152.56 20.936C153.157 20.936 153.626 20.7653 153.968 20.424C154.309 20.0827 154.565 19.624 154.736 19.048C154.906 18.4507 155.024 17.7787 155.088 17.032C155.173 16.2853 155.237 15.5067 155.28 14.696L155.536 7.784H170.256V25H165.264V10.664L166.384 11.88H158.832L159.888 10.6L159.664 14.92C159.6 16.456 159.472 17.864 159.28 19.144C159.109 20.424 158.821 21.5333 158.416 22.472C158.01 23.3893 157.466 24.104 156.784 24.616C156.101 25.1067 155.226 25.352 154.16 25.352C153.776 25.352 153.37 25.32 152.944 25.256C152.517 25.192 152.058 25.096 151.568 24.968ZM183.472 25.256C181.51 25.256 179.782 24.872 178.288 24.104C176.816 23.336 175.675 22.2907 174.864 20.968C174.054 19.624 173.648 18.0987 173.648 16.392C173.648 14.664 174.043 13.1387 174.832 11.816C175.643 10.472 176.742 9.42667 178.128 8.68C179.515 7.912 181.083 7.528 182.832 7.528C184.518 7.528 186.032 7.89067 187.376 8.616C188.742 9.32 189.819 10.344 190.608 11.688C191.398 13.0107 191.792 14.6 191.792 16.456C191.792 16.648 191.782 16.872 191.76 17.128C191.739 17.3627 191.718 17.5867 191.696 17.8H177.712V14.888H189.072L187.152 15.752C187.152 14.856 186.971 14.0773 186.608 13.416C186.246 12.7547 185.744 12.2427 185.104 11.88C184.464 11.496 183.718 11.304 182.864 11.304C182.011 11.304 181.254 11.496 180.592 11.88C179.952 12.2427 179.451 12.7653 179.088 13.448C178.726 14.1093 178.544 14.8987 178.544 15.816V16.584C178.544 17.5227 178.747 18.3547 179.152 19.08C179.579 19.784 180.166 20.328 180.912 20.712C181.68 21.0747 182.576 21.256 183.6 21.256C184.518 21.256 185.318 21.1173 186 20.84C186.704 20.5627 187.344 20.1467 187.92 19.592L190.576 22.472C189.787 23.368 188.795 24.0613 187.6 24.552C186.406 25.0213 185.03 25.256 183.472 25.256ZM195.619 25V7.784H200.579V18.024L208.963 7.784H213.539V25H208.579V14.76L200.227 25H195.619ZM204.259 5.928C202.381 5.928 200.973 5.52267 200.035 4.712C199.096 3.88 198.616 2.632 198.595 0.967999H201.859C201.88 1.69333 202.083 2.26933 202.467 2.696C202.851 3.12267 203.437 3.336 204.227 3.336C204.995 3.336 205.581 3.12267 205.987 2.696C206.413 2.26933 206.627 1.69333 206.627 0.967999H209.955C209.955 2.632 209.475 3.88 208.515 4.712C207.555 5.52267 206.136 5.928 204.259 5.928ZM226.53 25.256C224.674 25.256 223.02 24.8827 221.57 24.136C220.119 23.368 218.978 22.312 218.146 20.968C217.335 19.624 216.93 18.0987 216.93 16.392C216.93 14.664 217.335 13.1387 218.146 11.816C218.978 10.472 220.119 9.42667 221.57 8.68C223.02 7.912 224.674 7.528 226.53 7.528C228.343 7.528 229.922 7.912 231.266 8.68C232.61 9.42667 233.602 10.504 234.242 11.912L230.37 13.992C229.922 13.1813 229.356 12.584 228.674 12.2C228.012 11.816 227.287 11.624 226.498 11.624C225.644 11.624 224.876 11.816 224.194 12.2C223.511 12.584 222.967 13.128 222.562 13.832C222.178 14.536 221.986 15.3893 221.986 16.392C221.986 17.3947 222.178 18.248 222.562 18.952C222.967 19.656 223.511 20.2 224.194 20.584C224.876 20.968 225.644 21.16 226.498 21.16C227.287 21.16 228.012 20.9787 228.674 20.616C229.356 20.232 229.922 19.624 230.37 18.792L234.242 20.904C233.602 22.2907 232.61 23.368 231.266 24.136C229.922 24.8827 228.343 25.256 226.53 25.256ZM0.224 63.968L0.48 59.872C0.608 59.8933 0.736 59.9147 0.864 59.936C0.992 59.936 1.10933 59.936 1.216 59.936C1.81333 59.936 2.28267 59.7653 2.624 59.424C2.96533 59.0827 3.22133 58.624 3.392 58.048C3.56267 57.4507 3.68 56.7787 3.744 56.032C3.82933 55.2853 3.89333 54.5067 3.936 53.696L4.192 46.784H18.912V64H13.92V49.664L15.04 50.88H7.488L8.544 49.6L8.32 53.92C8.256 55.456 8.128 56.864 7.936 58.144C7.76533 59.424 7.47733 60.5333 7.072 61.472C6.66667 62.3893 6.12267 63.104 5.44 63.616C4.75733 64.1067 3.88267 64.352 2.816 64.352C2.432 64.352 2.02667 64.32 1.6 64.256C1.17333 64.192 0.714667 64.096 0.224 63.968ZM31.7765 64.256C29.9418 64.256 28.3098 63.872 26.8805 63.104C25.4725 62.336 24.3525 61.2907 23.5205 59.968C22.7098 58.624 22.3045 57.0987 22.3045 55.392C22.3045 53.664 22.7098 52.1387 23.5205 50.816C24.3525 49.472 25.4725 48.4267 26.8805 47.68C28.3098 46.912 29.9418 46.528 31.7765 46.528C33.5898 46.528 35.2112 46.912 36.6405 47.68C38.0698 48.4267 39.1898 49.4613 40.0005 50.784C40.8112 52.1067 41.2165 53.6427 41.2165 55.392C41.2165 57.0987 40.8112 58.624 40.0005 59.968C39.1898 61.2907 38.0698 62.336 36.6405 63.104C35.2112 63.872 33.5898 64.256 31.7765 64.256ZM31.7765 60.16C32.6085 60.16 33.3552 59.968 34.0165 59.584C34.6778 59.2 35.2005 58.656 35.5845 57.952C35.9685 57.2267 36.1605 56.3733 36.1605 55.392C36.1605 54.3893 35.9685 53.536 35.5845 52.832C35.2005 52.128 34.6778 51.584 34.0165 51.2C33.3552 50.816 32.6085 50.624 31.7765 50.624C30.9445 50.624 30.1978 50.816 29.5365 51.2C28.8752 51.584 28.3418 52.128 27.9365 52.832C27.5525 53.536 27.3605 54.3893 27.3605 55.392C27.3605 56.3733 27.5525 57.2267 27.9365 57.952C28.3418 58.656 28.8752 59.2 29.5365 59.584C30.1978 59.968 30.9445 60.16 31.7765 60.16ZM47.705 64V49.728L48.825 50.88H41.881V46.784H58.489V50.88H51.545L52.665 49.728V64H47.705ZM68.8473 64.256C66.8846 64.256 65.1566 63.872 63.6633 63.104C62.1913 62.336 61.0499 61.2907 60.2393 59.968C59.4286 58.624 59.0233 57.0987 59.0233 55.392C59.0233 53.664 59.4179 52.1387 60.2073 50.816C61.0179 49.472 62.1166 48.4267 63.5033 47.68C64.8899 46.912 66.4579 46.528 68.2073 46.528C69.8926 46.528 71.4073 46.8907 72.7513 47.616C74.1166 48.32 75.1939 49.344 75.9833 50.688C76.7726 52.0107 77.1673 53.6 77.1673 55.456C77.1673 55.648 77.1566 55.872 77.1353 56.128C77.1139 56.3627 77.0926 56.5867 77.0713 56.8H63.0873V53.888H74.4473L72.5273 54.752C72.5273 53.856 72.3459 53.0773 71.9833 52.416C71.6206 51.7547 71.1193 51.2427 70.4793 50.88C69.8393 50.496 69.0926 50.304 68.2393 50.304C67.3859 50.304 66.6286 50.496 65.9673 50.88C65.3273 51.2427 64.8259 51.7653 64.4633 52.448C64.1006 53.1093 63.9193 53.8987 63.9193 54.816V55.584C63.9193 56.5227 64.1219 57.3547 64.5273 58.08C64.9539 58.784 65.5406 59.328 66.2873 59.712C67.0553 60.0747 67.9513 60.256 68.9753 60.256C69.8926 60.256 70.6926 60.1173 71.3753 59.84C72.0793 59.5627 72.7193 59.1467 73.2953 58.592L75.9513 61.472C75.1619 62.368 74.1699 63.0613 72.9753 63.552C71.7806 64.0213 70.4046 64.256 68.8473 64.256ZM91.1378 64.256C89.6871 64.256 88.4178 63.936 87.3298 63.296C86.2418 62.656 85.3884 61.6853 84.7698 60.384C84.1724 59.0613 83.8738 57.3973 83.8738 55.392C83.8738 53.3653 84.1618 51.7013 84.7378 50.4C85.3138 49.0987 86.1458 48.128 87.2338 47.488C88.3218 46.848 89.6231 46.528 91.1378 46.528C92.7591 46.528 94.2098 46.9013 95.4897 47.648C96.7911 48.3733 97.8151 49.3973 98.5618 50.72C99.3298 52.0427 99.7138 53.6 99.7138 55.392C99.7138 57.2053 99.3298 58.7733 98.5618 60.096C97.8151 61.4187 96.7911 62.4427 95.4897 63.168C94.2098 63.8933 92.7591 64.256 91.1378 64.256ZM80.9618 70.208V46.784H85.7298V50.304L85.6338 55.424L85.9538 60.512V70.208H80.9618ZM90.2738 60.16C91.1058 60.16 91.8418 59.968 92.4818 59.584C93.1431 59.2 93.6658 58.656 94.0498 57.952C94.4551 57.2267 94.6578 56.3733 94.6578 55.392C94.6578 54.3893 94.4551 53.536 94.0498 52.832C93.6658 52.128 93.1431 51.584 92.4818 51.2C91.8418 50.816 91.1058 50.624 90.2738 50.624C89.4418 50.624 88.6951 50.816 88.0338 51.2C87.3724 51.584 86.8498 52.128 86.4658 52.832C86.0818 53.536 85.8898 54.3893 85.8898 55.392C85.8898 56.3733 86.0818 57.2267 86.4658 57.952C86.8498 58.656 87.3724 59.2 88.0338 59.584C88.6951 59.968 89.4418 60.16 90.2738 60.16ZM111.629 64.256C109.666 64.256 107.938 63.872 106.445 63.104C104.973 62.336 103.831 61.2907 103.021 59.968C102.21 58.624 101.805 57.0987 101.805 55.392C101.805 53.664 102.199 52.1387 102.989 50.816C103.799 49.472 104.898 48.4267 106.285 47.68C107.671 46.912 109.239 46.528 110.989 46.528C112.674 46.528 114.189 46.8907 115.533 47.616C116.898 48.32 117.975 49.344 118.765 50.688C119.554 52.0107 119.949 53.6 119.949 55.456C119.949 55.648 119.938 55.872 119.917 56.128C119.895 56.3627 119.874 56.5867 119.853 56.8H105.869V53.888H117.229L115.309 54.752C115.309 53.856 115.127 53.0773 114.765 52.416C114.402 51.7547 113.901 51.2427 113.261 50.88C112.621 50.496 111.874 50.304 111.021 50.304C110.167 50.304 109.41 50.496 108.749 50.88C108.109 51.2427 107.607 51.7653 107.245 52.448C106.882 53.1093 106.701 53.8987 106.701 54.816V55.584C106.701 56.5227 106.903 57.3547 107.309 58.08C107.735 58.784 108.322 59.328 109.069 59.712C109.837 60.0747 110.733 60.256 111.757 60.256C112.674 60.256 113.474 60.1173 114.157 59.84C114.861 59.5627 115.501 59.1467 116.077 58.592L118.733 61.472C117.943 62.368 116.951 63.0613 115.757 63.552C114.562 64.0213 113.186 64.256 111.629 64.256ZM123.775 64V46.784H128.735V57.024L137.119 46.784H141.695V64H136.735V53.76L128.383 64H123.775ZM132.415 44.928C130.538 44.928 129.13 44.5227 128.191 43.712C127.252 42.88 126.772 41.632 126.751 39.968H130.015C130.036 40.6933 130.239 41.2693 130.623 41.696C131.007 42.1227 131.594 42.336 132.383 42.336C133.151 42.336 133.738 42.1227 134.143 41.696C134.57 41.2693 134.783 40.6933 134.783 39.968H138.111C138.111 41.632 137.631 42.88 136.671 43.712C135.711 44.5227 134.292 44.928 132.415 44.928ZM146.494 64V46.784H151.454V53.504H158.942V46.784H163.934V64H158.942V57.568H151.454V64H146.494ZM186.441 64V46.784H191.401V64H186.441ZM177.769 52.288C180.03 52.3093 181.726 52.8213 182.857 53.824C184.009 54.8053 184.585 56.2027 184.585 58.016C184.585 59.9147 183.934 61.3973 182.633 62.464C181.331 63.5093 179.486 64.032 177.097 64.032L168.713 64V46.784H173.673V52.288H177.769ZM176.649 60.48C177.609 60.5013 178.345 60.2987 178.857 59.872C179.369 59.4453 179.625 58.8053 179.625 57.952C179.625 57.0987 179.369 56.4907 178.857 56.128C178.345 55.744 177.609 55.5413 176.649 55.52L173.673 55.488V60.48H176.649ZM193.909 64L201.621 53.888L201.525 56.64L194.133 46.784H199.733L204.405 53.216L202.293 53.28L207.125 46.784H212.437L205.013 56.544V53.856L212.693 64H207.029L202.133 57.152L204.213 57.44L199.349 64H193.909ZM232.757 64.384C231.349 64.384 230.069 64.1813 228.917 63.776C227.765 63.3493 226.762 62.6987 225.909 61.824C225.077 60.928 224.426 59.7867 223.957 58.4C223.509 57.0133 223.285 55.36 223.285 53.44C223.285 52.0747 223.402 50.8267 223.637 49.696C223.871 48.5653 224.223 47.5413 224.693 46.624C225.162 45.6853 225.759 44.864 226.485 44.16C227.231 43.4347 228.095 42.8373 229.077 42.368C230.079 41.8773 231.21 41.504 232.469 41.248L240.661 39.616L241.333 43.904L234.101 45.344C233.674 45.4293 233.183 45.5467 232.629 45.696C232.095 45.824 231.551 46.0267 230.997 46.304C230.463 46.5813 229.962 46.976 229.493 47.488C229.045 47.9787 228.682 48.6293 228.405 49.44C228.127 50.2293 227.989 51.2107 227.989 52.384C227.989 52.7467 227.999 53.024 228.021 53.216C228.063 53.408 228.095 53.6107 228.117 53.824C228.159 54.0373 228.181 54.368 228.181 54.816L226.581 53.248C227.05 52.2453 227.647 51.392 228.373 50.688C229.119 49.984 229.973 49.4507 230.933 49.088C231.914 48.704 233.002 48.512 234.197 48.512C235.818 48.512 237.237 48.8427 238.453 49.504C239.69 50.144 240.65 51.0507 241.333 52.224C242.015 53.3973 242.357 54.7307 242.357 56.224C242.357 57.8453 241.951 59.2747 241.141 60.512C240.33 61.728 239.199 62.6773 237.749 63.36C236.319 64.0427 234.655 64.384 232.757 64.384ZM233.013 60.512C233.845 60.512 234.581 60.3307 235.221 59.968C235.861 59.584 236.351 59.0827 236.693 58.464C237.055 57.824 237.237 57.1093 237.237 56.32C237.237 55.552 237.055 54.8693 236.693 54.272C236.351 53.6747 235.861 53.2053 235.221 52.864C234.581 52.5227 233.834 52.352 232.981 52.352C232.149 52.352 231.402 52.5227 230.741 52.864C230.079 53.184 229.567 53.632 229.205 54.208C228.842 54.784 228.661 55.456 228.661 56.224C228.661 57.0133 228.842 57.7387 229.205 58.4C229.589 59.04 230.101 59.552 230.741 59.936C231.402 60.32 232.159 60.512 233.013 60.512ZM245.744 64V46.784H250.704V57.024L259.088 46.784H263.664V64H258.704V53.76L250.352 64H245.744ZM266.287 63.968L266.543 59.872C266.671 59.8933 266.799 59.9147 266.927 59.936C267.055 59.936 267.172 59.936 267.279 59.936C267.876 59.936 268.345 59.7653 268.687 59.424C269.028 59.0827 269.284 58.624 269.455 58.048C269.625 57.4507 269.743 56.7787 269.807 56.032C269.892 55.2853 269.956 54.5067 269.999 53.696L270.255 46.784H284.975V64H279.983V49.664L281.103 50.88H273.551L274.607 49.6L274.383 53.92C274.319 55.456 274.191 56.864 273.999 58.144C273.828 59.424 273.54 60.5333 273.135 61.472C272.729 62.3893 272.185 63.104 271.503 63.616C270.82 64.1067 269.945 64.352 268.879 64.352C268.495 64.352 268.089 64.32 267.663 64.256C267.236 64.192 266.777 64.096 266.287 63.968ZM298.191 64.256C296.228 64.256 294.5 63.872 293.007 63.104C291.535 62.336 290.394 61.2907 289.583 59.968C288.772 58.624 288.367 57.0987 288.367 55.392C288.367 53.664 288.762 52.1387 289.551 50.816C290.362 49.472 291.46 48.4267 292.847 47.68C294.234 46.912 295.802 46.528 297.551 46.528C299.236 46.528 300.751 46.8907 302.095 47.616C303.46 48.32 304.538 49.344 305.327 50.688C306.116 52.0107 306.511 53.6 306.511 55.456C306.511 55.648 306.5 55.872 306.479 56.128C306.458 56.3627 306.436 56.5867 306.415 56.8H292.431V53.888H303.791L301.871 54.752C301.871 53.856 301.69 53.0773 301.327 52.416C300.964 51.7547 300.463 51.2427 299.823 50.88C299.183 50.496 298.436 50.304 297.583 50.304C296.73 50.304 295.972 50.496 295.311 50.88C294.671 51.2427 294.17 51.7653 293.807 52.448C293.444 53.1093 293.263 53.8987 293.263 54.816V55.584C293.263 56.5227 293.466 57.3547 293.871 58.08C294.298 58.784 294.884 59.328 295.631 59.712C296.399 60.0747 297.295 60.256 298.319 60.256C299.236 60.256 300.036 60.1173 300.719 59.84C301.423 59.5627 302.063 59.1467 302.639 58.592L305.295 61.472C304.506 62.368 303.514 63.0613 302.319 63.552C301.124 64.0213 299.748 64.256 298.191 64.256ZM313.424 64V49.728L314.544 50.88H307.6V46.784H324.208V50.88H317.264L318.384 49.728V64H313.424ZM334.214 64.256C332.379 64.256 330.747 63.872 329.318 63.104C327.91 62.336 326.79 61.2907 325.958 59.968C325.147 58.624 324.742 57.0987 324.742 55.392C324.742 53.664 325.147 52.1387 325.958 50.816C326.79 49.472 327.91 48.4267 329.318 47.68C330.747 46.912 332.379 46.528 334.214 46.528C336.027 46.528 337.649 46.912 339.078 47.68C340.507 48.4267 341.627 49.4613 342.438 50.784C343.249 52.1067 343.654 53.6427 343.654 55.392C343.654 57.0987 343.249 58.624 342.438 59.968C341.627 61.2907 340.507 62.336 339.078 63.104C337.649 63.872 336.027 64.256 334.214 64.256ZM334.214 60.16C335.046 60.16 335.793 59.968 336.454 59.584C337.115 59.2 337.638 58.656 338.022 57.952C338.406 57.2267 338.598 56.3733 338.598 55.392C338.598 54.3893 338.406 53.536 338.022 52.832C337.638 52.128 337.115 51.584 336.454 51.2C335.793 50.816 335.046 50.624 334.214 50.624C333.382 50.624 332.635 50.816 331.974 51.2C331.313 51.584 330.779 52.128 330.374 52.832C329.99 53.536 329.798 54.3893 329.798 55.392C329.798 56.3733 329.99 57.2267 330.374 57.952C330.779 58.656 331.313 59.2 331.974 59.584C332.635 59.968 333.382 60.16 334.214 60.16ZM347.088 64V46.784H355.888C358.042 46.784 359.728 47.1787 360.944 47.968C362.16 48.736 362.767 49.824 362.767 51.232C362.767 52.64 362.192 53.7493 361.04 54.56C359.909 55.3493 358.405 55.744 356.528 55.744L357.04 54.592C359.13 54.592 360.688 54.976 361.712 55.744C362.757 56.512 363.28 57.632 363.28 59.104C363.28 60.6187 362.704 61.8133 361.552 62.688C360.4 63.5627 358.64 64 356.272 64H347.088ZM351.664 60.608H355.856C356.773 60.608 357.456 60.4587 357.904 60.16C358.373 59.84 358.608 59.36 358.608 58.72C358.608 58.0587 358.394 57.5787 357.968 57.28C357.541 56.96 356.869 56.8 355.952 56.8H351.664V60.608ZM351.664 53.856H355.44C356.314 53.856 356.965 53.696 357.392 53.376C357.84 53.056 358.064 52.5973 358.064 52C358.064 51.3813 357.84 50.9227 357.392 50.624C356.965 50.3253 356.314 50.176 355.44 50.176H351.664V53.856Z" fill="white"/>
</svg>
